<?xml version="1.0" encoding="UTF-8" standalone="no"?><!DOCTYPE svg PUBLIC "-//W3C//DTD SVG 1.1//EN" "http://www.w3.org/Graphics/SVG/1.1/DTD/svg11.dtd"><svg width="100%" height="100%" viewBox="0 0 1714 842" version="1.1" xmlns="http://www.w3.org/2000/svg" xmlns:xlink="http://www.w3.org/1999/xlink" xml:space="preserve" xmlns:serif="http://www.serif.com/" style="fill-rule:evenodd;clip-rule:evenodd;stroke-linejoin:round;stroke-miterlimit:2;"><rect id="Artboard2" x="0" y="0" width="1713.676" height="841.89" style="fill:none;"/><clipPath id="_clip1"><rect x="0" y="0" width="1713.676" height="841.89"/></clipPath><g clip-path="url(#_clip1)"><path d="M55.012,600.289l85.37,0l56.553,73.561l2.882,0l56.553,-73.561l85.371,0l0,231.949l-84.29,0l0,-121.276l-2.161,0l-55.473,67.265l-2.882,0l-55.472,-67.265l-2.161,0l0,121.276l-84.29,0l0,-231.949Z" style="fill:#eee;fill-rule:nonzero;"/><path d="M1087.435,600.289l90.774,0l45.746,170.649l2.883,0l45.746,-170.649l90.774,0l-69.881,231.949l-136.161,0l-69.881,-231.949Z" style="fill:#eee;fill-rule:nonzero;"/><path d="M1055.088,832.237l-90.774,0l-45.746,-170.648l-2.883,0l-45.746,170.648l-90.774,0l69.881,-231.949l136.161,0l69.881,231.949Z" style="fill:#eee;fill-rule:nonzero;"/><path d="M426.843,600.289l86.486,0.056l0,158.946l104.696,0l0.63,-159.002l84.111,0l-0.033,231.949l-275.064,0l-0.826,-231.949Z" style="fill:#eee;fill-rule:nonzero;"/><path d="M1520.342,661.258l0,24.188l138.322,0l0,61.302l-138.322,0l0,24.52l138.322,0l0,60.969l-222.612,0l0,-231.948l222.612,0l0,60.969l-138.322,0Z" style="fill:#eee;fill-rule:nonzero;"/><path d="M860.303,296.102c18.224,-1.565 36.318,-7.264 52.668,-17.222c30.569,-18.634 56.108,-43.3 81.133,-68.556c35.959,-36.344 70.865,-73.843 108.339,-108.519c52.488,-48.561 113.036,-84.623 184.312,-96.635c142.656,-24.024 305.87,35.574 357.794,180.899c8.393,23.511 15.349,50.794 13.834,76.127l-179.05,0c-2.619,-22.561 -15.195,-39.424 -32.982,-52.976c-24.743,-18.865 -53.105,-28.207 -83.828,-30.44c-46.918,-3.414 -87.78,13.321 -122.558,42.812c-30.8,26.077 -59.419,54.901 -87.6,83.878c-42.633,43.814 -84.29,88.782 -136.727,121.198c-50.871,31.442 -102.59,48.203 -154.899,50.153c-0.154,0.026 -0.308,0.026 -0.462,0.026c-0.154,0 -0.308,0 -0.462,-0.026c-1.001,-0.051 -1.976,-0.103 -2.977,-0.154c-1.001,0.051 -1.976,0.103 -2.977,0.154c-0.154,0.026 -0.308,0.026 -0.462,0.026c-0.154,0 -0.308,0 -0.462,-0.026c-52.309,-1.95 -104.027,-18.711 -154.899,-50.153c-52.437,-32.416 -94.094,-77.384 -136.726,-121.198c-28.182,-28.977 -56.801,-57.801 -87.601,-83.878c-34.778,-29.491 -75.639,-46.226 -122.558,-42.812c-30.723,2.233 -59.085,11.575 -83.828,30.44c-17.787,13.552 -30.363,30.415 -32.981,52.976l-179.051,0c-1.515,-25.333 5.441,-52.616 13.834,-76.127c51.924,-145.325 215.138,-204.923 357.794,-180.899c71.276,12.012 131.824,48.074 184.312,96.635c37.474,34.676 72.381,72.175 108.34,108.519c25.025,25.256 50.563,49.922 81.132,68.556c16.35,9.958 34.445,15.657 52.668,17.222" style="fill:#eee;fill-rule:nonzero;"/></g></svg>