<?xml version="1.0" encoding="UTF-8" standalone="no"?><svg width="100%" height="100%" viewBox="0 0 2481 2373" version="1.1" xmlns="http://www.w3.org/2000/svg" xmlns:xlink="http://www.w3.org/1999/xlink" xml:space="preserve" xmlns:serif="http://www.serif.com/" style="fill-rule:evenodd;clip-rule:evenodd;stroke-linejoin:round;stroke-miterlimit:2;"><rect id="Artboard1" x="0" y="0" width="2480.315" height="2372.874" style="fill:none;"></rect><g transform="matrix(624.814583,0,0,624.814583,2179.744637,790.937008)"></g><text x="217.729px" y="790.937px" style="font-family:&#39;Bahnschrift&#39;, sans-serif;font-size:624.815px;fill:#eeefef;">Б<tspan x="567.97px 923.396px 1172.958px 1528.385px 1775.202px " y="790.937px 790.937px 790.937px 790.937px 790.937px ">ОГОТА</tspan></text><g transform="matrix(0.995879,0,0,1,-0.728125,0)"><g transform="matrix(283.333333,0,0,283.333333,2029.768421,314.161318)"></g><text x="313.17px" y="314.161px" style="font-family:&#39;P22AllysonPro&#39;, &#39;P22 Allyson Pro&#39;;font-style:italic;font-size:283.333px;fill:#faab64;">Р<tspan x="627.691px 766.261px 904.832px 1152.486px 1293.89px 1491.961px 1654.614px 1845.602px " y="314.161px 314.161px 314.161px 314.161px 314.161px 314.161px 314.161px 314.161px ">есторант</tspan></text></g><g transform="matrix(624.814583,0,0,624.814583,2179.744637,1868.629364)"></g><text x="217.729px" y="1868.629px" style="font-family:&#39;Bahnschrift&#39;, sans-serif;font-size:624.815px;fill:#282828;">Б<tspan x="567.97px 923.396px 1172.958px 1528.385px 1775.202px " y="1868.629px 1868.629px 1868.629px 1868.629px 1868.629px ">ОГОТА</tspan></text><g transform="matrix(0.995879,0,0,1,-0.728125,0)"><g transform="matrix(283.333333,0,0,283.333333,2029.768421,1391.853675)"></g><text x="313.17px" y="1391.854px" style="font-family:&#39;P22AllysonPro&#39;, &#39;P22 Allyson Pro&#39;;font-style:italic;font-size:283.333px;fill:#faab64;">Р<tspan x="627.691px 766.261px 904.832px 1152.486px 1293.89px 1491.961px 1654.614px 1845.602px " y="1391.854px 1391.854px 1391.854px 1391.854px 1391.854px 1391.854px 1391.854px 1391.854px ">есторант</tspan></text></g></svg>